<?xml version="1.0" standalone="no"?>
<!DOCTYPE svg PUBLIC "-//W3C//DTD SVG 20010904//EN"
 "http://www.w3.org/TR/2001/REC-SVG-20010904/DTD/svg10.dtd">
<svg version="1.0" xmlns="http://www.w3.org/2000/svg"
 width="1000.000000pt" height="1000.000000pt" viewBox="0 0 1000.000000 1000.000000"
 preserveAspectRatio="xMidYMid meet">
<metadata>
Created by potrace 1.14, written by Peter Selinger 2001-2017
</metadata>
<g transform="translate(0.000000,1000.000000) scale(0.100000,-0.100000)"
fill="#000000" stroke="none">
<path d="M0 5000 l0 -5000 5000 0 5000 0 0 5000 0 5000 -5000 0 -5000 0 0
-5000z m3595 2011 c53 -106 285 -624 426 -954 339 -790 727 -1791 1100 -2837
60 -168 109 -308 109 -312 0 -5 -184 -8 -409 -8 l-409 0 -7 28 c-4 15 -69 198
-144 407 -76 209 -151 417 -165 463 l-28 82 -872 0 -873 0 -36 -102 c-83 -238
-296 -844 -302 -860 -7 -17 -35 -18 -402 -18 -372 0 -395 1 -388 18 4 9 47
132 97 272 515 1458 969 2600 1433 3613 l118 257 363 0 364 0 25 -49z"/>
<path d="M3117 6067 c-162 -389 -335 -836 -510 -1317 l-93 -255 674 -3 c372
-1 677 0 680 2 8 8 -243 684 -423 1141 -95 241 -244 606 -250 613 -1 1 -37
-80 -78 -181z"/>
</g>
</svg>
